<?xml version="1.0" encoding="iso-8859-1"?>
<!-- Generator: Adobe Illustrator 19.0.0, SVG Export Plug-In . SVG Version: 6.00 Build 0)  -->
<svg version="1.1" id="Capa_1" xmlns="http://www.w3.org/2000/svg" xmlns:xlink="http://www.w3.org/1999/xlink" x="0px" y="0px"
	 viewBox="0 0 512.002 512.002" style="enable-background:new 0 0 512.002 512.002;" xml:space="preserve">
<g transform="matrix(1.25 0 0 -1.25 0 45)">
	<g>
		<path style="fill:#FFAC33;" d="M349.344-66.987C322.96-30.486,273.139,13.747,185.57,17.217l-4.331,0.187l-1.467-4.087
			c-0.745-2.05-3.516-6.043-6.194-9.909c-7.905-11.398-18.746-27-14.123-40.984c2.585-7.789,9.489-13.635,20.538-17.36
			c22.041-7.44,67.868-44.966,76.869-90.177c2.491-12.528,1.805-24.579-1.688-36.152c-18.908,35.291-53.163,57.495-94.986,57.495
			c-67.694,0-110.925-55.736-110.925-124.233c0-59.171,43.232-124.245,110.925-124.245c0.349,0,0.675,0.046,1.013,0.046l1.06-0.07
			c7.009-0.501,18.723-1.327,32.904-1.327c70.861,0,161.119,20.143,188.633,116.06C401.901-194.434,388.709-121.419,349.344-66.987z
			"/>
		<path style="fill:#FF839B;" d="M238.51,1.652c-0.501,5.042-4.156,9.198-9.105,10.351C210.846,16.288,80.732,36,52.975,36
			l-2.27-0.046c-16.557-0.757-29.201-9.198-32.229-21.517C17.044,8.65,16.043-6.184,37.384-18.63
			c6.416-3.738,10.327-7.697,10.467-10.56c0.116-2.736-3.039-8.29-12.365-14.938C26.242-50.73,22.458-60.93,25.59-70.722
			c3.854-12.039,17.092-20.12,32.927-20.12c8.662,0,17.616,2.282,26.605,6.765c23.24,11.631,54.514,19.141,79.686,19.141
			c12.412,0,22.949-1.689,31.308-5.135c4.215-1.735,8.348-2.562,12.261-2.562h0.012c7.207,0,22.867,2.271,18.617,8.349
			C196.187-20.18,239.337-6.346,238.51,1.652z"/>
	</g>
	<g>
		<path style="fill:#F4900C;" d="M280.73-300.516c35.5,38.458,37.724,135.33-44.116,201.393c-0.817,0.235-1.605,0.445-2.368,0.634
			c10.601-13.651,19.216-29.588,22.602-46.616c2.416-12.101,1.853-23.745-1.329-34.936c22.474-43.271,33.766-115.678-40.108-137.486
			C213.432-324.931,249.235-334.642,280.73-300.516z"/>
		<path style="fill:#F4900C;" d="M391.709-204.934c-10.584-9.739-22.655-17.855-32.587-22.369
			c-16.277-7.405-22.925-16.277-4.436-14.053c8.85,1.059,22.103,5.344,34.897,10.899
			C390.798-222.027,391.501-213.499,391.709-204.934z"/>
		<path style="fill:#F4900C;" d="M360.602-151.137c8.877,5.65,15.395,13.848,19.718,22.983
			c-5.008,15.301-11.624,30.092-19.774,43.982c1.395-24.177-1.133-47.258-16.222-61.051
			C318.453-168.882,345.5-160.743,360.602-151.137z"/>
	</g>
	<path style="fill:#EA596E;" d="M24.703-8.414c2.926-3.429,7.008-6.902,12.681-10.209c6.416-3.749,10.327-7.697,10.467-10.572
		c0.128-2.724-3.039-8.279-12.365-14.938c-7.041-5.028-10.91-12.143-10.973-19.576C149.337-19.348,60.679-38.154,24.703-8.414z"/>
</g>
<g>
</g>
<g>
</g>
<g>
</g>
<g>
</g>
<g>
</g>
<g>
</g>
<g>
</g>
<g>
</g>
<g>
</g>
<g>
</g>
<g>
</g>
<g>
</g>
<g>
</g>
<g>
</g>
<g>
</g>
</svg>
