<?xml version="1.0" encoding="iso-8859-1"?>
<!-- Generator: Adobe Illustrator 19.0.0, SVG Export Plug-In . SVG Version: 6.00 Build 0)  -->
<svg version="1.1" id="Capa_1" xmlns="http://www.w3.org/2000/svg" xmlns:xlink="http://www.w3.org/1999/xlink" x="0px" y="0px"
	 viewBox="0 0 512 512" style="enable-background:new 0 0 512 512;" xml:space="preserve">
<path style="fill:#8899A6;" d="M279.123,285.03c0,0,144.943-31.942,144.943-231.012c0-21.377-16.844-32.476-49.306-32.476H271.934
	h-16.238h-16.238H136.647c-16.238,0-48.049-3.781-48.049,30.672c0,197.858,147.224,232.816,147.224,232.816v146.113
	c0,0-66.164,33.775-79.357,41.613c-14.202,8.112-4.763,21.102,0.91,23.339C166.857,499.819,189.907,512,255.25,512
	c66.973,0,89.518-13.192,97.629-15.906c3.132-1.039,19.442-13.452,0.159-24.87c-34.324-20.323-73.915-40.082-73.915-40.082V285.03z"
	/>
<g>
	<path style="fill:#CCD6DD;" d="M423.46,42.363c0,23.397-51.196,42.363-167.763,42.363S87.934,65.759,87.934,42.363
		C87.934,18.952,139.13,0,255.698,0S423.46,18.951,423.46,42.363"/>
	<path style="fill:#CCD6DD;" d="M112.536,44.398c29.473,137.12,78.779,184.636,125.559,199.691
		c16.021,5.167,29.243,6.178,40.429,1.776c50.518-19.846,108.859-81.782,117.88-196.054
		C398.728,20.41,112.536,44.398,112.536,44.398"/>
</g>
<path style="fill:#A0041E;" d="M134.785,129.796c0,50.518,48.108,122.687,120.276,122.687c72.184,0,125.097-78.779,125.097-122.081
	C293.556,130.403,134.785,129.796,134.785,129.796"/>
<path style="fill:#DD2E44;" d="M380.159,129.796c0,11.965-54.935,21.651-122.687,21.651s-122.687-9.685-122.687-21.651
	s54.935-21.651,122.687-21.651S380.159,117.831,380.159,129.796"/>
<path style="fill:#FFFFFF;" d="M252.68,88.793c-72.602,0-126.772-16.021-141.465-22.906c-7.217-3.392-10.32-11.98-6.943-19.197
	c3.377-7.232,11.995-10.335,19.197-6.943c17.883,8.4,136.456,41.771,268.41-1.833c7.549-2.511,15.704,1.603,18.215,9.165
	c2.511,7.578-1.603,15.748-9.165,18.244C347.856,82.861,296.862,88.793,252.68,88.793"/>
<g>
</g>
<g>
</g>
<g>
</g>
<g>
</g>
<g>
</g>
<g>
</g>
<g>
</g>
<g>
</g>
<g>
</g>
<g>
</g>
<g>
</g>
<g>
</g>
<g>
</g>
<g>
</g>
<g>
</g>
</svg>
